<svg width="126" height="24" fill="none" xmlns="http://www.w3.org/2000/svg"><path d="M49.536 8.891h3.936v9.765h3.175V8.89h3.962V5.974H49.536v2.917zm22.174 6.873V8.865c2.209 0 3.783 1.32 3.783 3.475 0 2.08-1.574 3.424-3.784 3.424zm-3.175 0c-2.21 0-3.784-1.344-3.784-3.424 0-2.156 1.574-3.475 3.784-3.475v6.899zm3.174-9.84V.9h-3.174v5.022c-3.988 0-6.984 2.714-6.984 6.417 0 3.678 2.996 6.366 6.984 6.366v5.073h3.174v-5.073c3.987 0 6.984-2.688 6.984-6.366 0-3.703-2.997-6.417-6.984-6.417zm10.667 6.543c-.051 2.385-.813 3.12-2.26 3.12h-.23v3.07c3.76.253 5.562-1.624 5.69-5.986l.101-3.78h4.724v9.765h3.174V5.975H82.528l-.153 6.492zm20.343 3.475c-2.107 0-3.58-1.522-3.58-3.601 0-2.156 1.473-3.653 3.58-3.653 2.134 0 3.632 1.497 3.632 3.652 0 2.08-1.498 3.602-3.632 3.602zm0-10.272c-3.91 0-6.806 2.968-6.806 6.696 0 3.652 2.895 6.594 6.806 6.594 3.988 0 6.908-2.942 6.908-6.594 0-3.728-2.92-6.696-6.908-6.696zm18.913.305l-3.683 8.217h-.33l-4.064-8.217h-3.809l6.222 12.123-2.641 5.63h3.809l8.305-17.753h-3.809zm-96.614 9.959c-2.032 0-3.454-1.598-3.454-3.652 0-2.232 1.422-3.703 3.454-3.703 2.133 0 3.556 1.47 3.556 3.703 0 2.054-1.423 3.652-3.556 3.652zm3.657-8.674h-.127c-.66-.863-2.006-1.649-3.91-1.649-3.582 0-6.35 2.968-6.35 6.696 0 3.652 2.768 6.594 6.35 6.594 1.904 0 3.25-.786 3.91-1.648h.127l.178 1.344h2.92V5.916h-2.92l-.178 1.344zm15.326 3.584h-5.765v-4.87h-3.174v12.682h3.174V13.76h5.765v4.895h3.175V5.974H44v4.87zM17.84.843h-3.936L9.383 7.336h-.457L4.634.843H.545l5.918 8.775-6.4 8.979H4.1l4.723-6.518h.457l4.673 6.518h4.216l-6.4-9.055 6.07-8.7z" fill="#1D1D1F"/></svg>