<svg width="126" height="24" viewBox="0 0 126 24" fill="none" xmlns="http://www.w3.org/2000/svg">
<path d="M49.5356 8.89107H53.4721V18.6558H56.6468V8.89107H60.6086V5.97443H49.5356V8.89107Z" fill="#1D1D1F"/>
<path d="M71.7092 15.764V8.86524C73.9189 8.86524 75.4933 10.1842 75.4933 12.3401C75.4933 14.4198 73.9189 15.764 71.7092 15.764ZM68.5347 15.764C66.3251 15.764 64.7507 14.4198 64.7507 12.3401C64.7507 10.1842 66.3251 8.86524 68.5347 8.86524V15.764ZM71.7092 5.92326V0.901367H68.5347V5.92326C64.5474 5.92326 61.5508 8.63704 61.5508 12.3401C61.5508 16.0178 64.5474 18.7061 68.5347 18.7061V23.7787H71.7092V18.7061C75.6964 18.7061 78.6932 16.0178 78.6932 12.3401C78.6932 8.63704 75.6964 5.92326 71.7092 5.92326Z" fill="#1D1D1F"/>
<path d="M82.3755 12.4675C82.3247 14.8516 81.5628 15.5871 80.1152 15.5871H79.8867V18.6561C83.6453 18.9097 85.4484 17.0328 85.5755 12.6705L85.6771 8.89135H90.4008V18.6561H93.5753V5.97461H82.5278L82.3755 12.4675Z" fill="#1D1D1F"/>
<path d="M102.719 15.9421C100.612 15.9421 99.1385 14.4203 99.1385 12.3405C99.1385 10.1847 100.612 8.68825 102.719 8.68825C104.853 8.68825 106.351 10.1847 106.351 12.3405C106.351 14.4203 104.853 15.9421 102.719 15.9421ZM102.719 5.6701C98.8084 5.6701 95.9132 8.63769 95.9132 12.3659C95.9132 16.0182 98.8084 18.9603 102.719 18.9603C106.707 18.9603 109.627 16.0182 109.627 12.3659C109.627 8.63769 106.707 5.6701 102.719 5.6701Z" fill="#1D1D1F"/>
<path d="M121.632 5.97461L117.949 14.1923H117.619L113.555 5.97461H109.746L115.968 18.0981L113.327 23.7287H117.136L125.441 5.97461H121.632Z" fill="#1D1D1F"/>
<path d="M25.0182 15.9338C22.9865 15.9338 21.5644 14.3361 21.5644 12.2817C21.5644 10.0498 22.9865 8.57869 25.0182 8.57869C27.1515 8.57869 28.5736 10.0498 28.5736 12.2817C28.5736 14.3361 27.1515 15.9338 25.0182 15.9338ZM28.6753 7.2597H28.5482C27.888 6.39745 26.542 5.61121 24.6372 5.61121C21.0563 5.61121 18.2882 8.57869 18.2882 12.3071C18.2882 15.9592 21.0563 18.9013 24.6372 18.9013C26.542 18.9013 27.888 18.1151 28.5482 17.2528H28.6753L28.853 18.597H31.7736V5.91555H28.853L28.6753 7.2597Z" fill="#1D1D1F"/>
<path d="M44.0011 10.8441H38.2361V5.97443H35.0616V18.6558H38.2361V13.7609H44.0011V18.6558H47.1756V5.97443H44.0011V10.8441Z" fill="#1D1D1F"/>
<path d="M17.84 0.842773H13.9036L9.38294 7.3356H8.92594L4.63397 0.842773H0.545093L6.46252 9.61833L0.0625 18.5968H4.10056L8.8243 12.0787H9.28148L13.9544 18.5968H18.1701L11.7703 9.5422L17.84 0.842773Z" fill="#1D1D1F"/>
</svg>
